<?xml version="1.0" encoding="UTF-8" standalone="no"?>
<!-- Created with Inkscape (http://www.inkscape.org/) -->

<svg
   version="1.1"
   id="svg1"
   width="470"
   height="150"
   viewBox="0 0 470 150"
   sodipodi:docname="Imagen de WhatsApp 2025-05-12 a las 11.29.32_a05c1d5f.jpg"
   xml:space="preserve"
   inkscape:export-filename="Imagen de WhatsApp 2025-05-12 a las 11.29.32_a05c1d5f.svg"
   inkscape:export-xdpi="96"
   inkscape:export-ydpi="96"
   xmlns:inkscape="http://www.inkscape.org/namespaces/inkscape"
   xmlns:sodipodi="http://sodipodi.sourceforge.net/DTD/sodipodi-0.dtd"
   xmlns:xlink="http://www.w3.org/1999/xlink"
   xmlns="http://www.w3.org/2000/svg"
   xmlns:svg="http://www.w3.org/2000/svg"><defs
     id="defs1"><linearGradient
       inkscape:collect="always"
       id="linearGradient3270"><stop
         style="stop-color:#45aede;stop-opacity:1;"
         offset="0.07161803"
         id="stop3266" /><stop
         style="stop-color:#1074bf;stop-opacity:1;"
         offset="0.51127326"
         id="stop11180" /><stop
         style="stop-color:#0960ad;stop-opacity:1;"
         offset="0.69893897"
         id="stop10277" /><stop
         style="stop-color:#0960ad;stop-opacity:1;"
         offset="0.93103451"
         id="stop11176" /></linearGradient><linearGradient
       inkscape:collect="always"
       xlink:href="#linearGradient3270"
       id="linearGradient3272"
       x1="9.9268579"
       y1="56.500076"
       x2="42.761448"
       y2="56.500076"
       gradientUnits="userSpaceOnUse"
       gradientTransform="matrix(1,0,0,1.0144314,-125.84614,67.458424)" /></defs><sodipodi:namedview
     id="namedview1"
     pagecolor="#000000"
     bordercolor="#000000"
     borderopacity="0.25"
     inkscape:showpageshadow="2"
     inkscape:pageopacity="0.0"
     inkscape:pagecheckerboard="0"
     inkscape:deskcolor="#d1d1d1"
     inkscape:export-bgcolor="#ffffff00"><inkscape:page
       x="0"
       y="0"
       width="470"
       height="150"
       id="page2"
       margin="0"
       bleed="0" /></sodipodi:namedview><g
     inkscape:groupmode="layer"
     inkscape:label="Image"
     id="g1"><g
       inkscape:label="Capa 1"
       id="layer1"
       transform="matrix(3.7795276,0,0,3.7795276,457.35537,-396.93333)"><path
         id="path3088"
         style="fill:url(#linearGradient3272);fill-opacity:1;stroke:none;stroke-width:0.569061"
         d="m -97.270203,107.13682 c -0.03877,-7.1e-4 -0.07737,-4.1e-4 -0.116272,5.3e-4 -1.123433,0.0272 -2.49974,0.87123 -3.058215,1.86046 -5.30745,9.40118 -9.16975,20.23783 -15.16961,32.57672 -0.20869,0.42917 0.7279,0.72335 1.19786,0.76484 1.05033,0.0927 2.92747,-1.21514 2.92747,-1.21514 0,0 5.35999,-6.00007 8.60464,-8.18887 0.10906,-0.0736 8.85844,-5.70221 11.865942,-4.20007 0.991011,0.49497 2.273246,4.42234 2.273246,4.42234 0,0 0.796046,2.09375 0.409278,3.01742 -0.336705,0.8041 -1.269363,1.43292 -2.129069,1.48459 -3.579456,0.21514 -10.955407,0.0451 -10.955407,0.0451 l -2.75022,4.67973 c 0,0 9.670385,0.12831 14.282336,-0.18033 2.039366,-0.13647 4.277706,-1.1993 5.411039,-2.92463 1.218807,-1.85545 1.435398,-4.58818 0.62115,-6.65919 -3.150487,-8.01318 -6.99464,-16.93417 -10.512019,-23.57741 -0.570781,-1.07802 -1.700386,-1.88411 -2.902149,-1.90607 z m -0.259932,6.57427 4.610054,10.21289 c 0,0 -3.349525,0.44344 -4.992977,0.99917 -2.026087,0.68511 -6.015652,2.72333 -6.015652,2.72333 z" /><path
         id="path12840"
         style="fill:#ffffff;fill-opacity:1;stroke:none;stroke-width:0.564999"
         d="m -69.878416,119.48576 -3.05511,0.0109 -4.604887,12.13259 H -74.998 l 0.846977,-2.38383 5.331458,-0.0625 1.03508,2.50889 h 2.634464 z m -1.45004,2.32647 1.881539,5.14387 -3.794601,-0.094 z" /><path
         id="path12840-3"
         style="fill:#ffffff;fill-opacity:1;stroke:none;stroke-width:0.564999"
         d="m -32.421927,119.68174 -3.05511,0.0108 -4.604887,12.1326 h 2.540413 l 0.846977,-2.38384 5.331458,-0.0625 1.03508,2.50889 h 2.634464 z m -1.45004,2.32648 1.881539,5.14387 -3.794601,-0.094 z" /><path
         style="fill:#ffffff;fill-opacity:1;stroke:none;stroke-width:0.564999"
         d="m -64.26943,119.65439 2.445059,0.0111 c 0,0 0.0093,5.15998 0.02218,7.80645 0.0039,0.79682 0.565313,2.27986 2.713093,2.3638 1.16619,0.0456 2.694949,-1.06237 2.703743,-2.23073 0.01579,-2.0971 0.0013,-7.94368 0.0013,-7.94368 l 2.449219,10e-4 0.01622,8.60479 c 0.0037,1.93961 -2.009242,3.85056 -5.068702,3.712 -5.234177,-0.23706 -5.281197,-3.39914 -5.281287,-4.27654 z"
         id="path12899"
         sodipodi:nodetypes="ccsssccsssc" /><path
         id="path12901"
         style="fill:#ffffff;fill-opacity:1;stroke:none;stroke-width:0.570348"
         d="m -45.002153,119.63478 c -0.03045,-3.1e-4 -0.05569,0.002 -0.07493,0.008 h -6.214608 v 12.10933 l 2.41794,0.0439 -0.02274,-4.30981 2.086178,-0.009 2.772957,4.31912 h 2.824634 l -3.028239,-4.71238 c 0.103816,0.10188 2.38527,-1.31523 2.497522,-3.23804 0.170749,-2.92482 -2.639469,-4.20488 -3.258716,-4.21111 z m -0.62115,2.04173 c 0.413314,-10e-4 1.298311,0.67026 1.490865,1.80713 0.09351,0.55207 -0.753011,1.83176 -1.353923,1.82986 l -3.425114,-0.0114 v -3.61477 z" /><path
         id="rect13036"
         style="fill:#ffffff;fill-opacity:1;stroke:none;stroke-width:0.564999"
         d="m -26.138551,119.7416 v 12.10882 h 0.51005 2.173511 5.10098 v -2.10685 h -5.10098 V 119.7416 Z" /><rect
         style="fill:#ffffff;fill-opacity:1;stroke:none;stroke-width:0.562471"
         id="rect13040"
         width="2.4616933"
         height="12.108871"
         x="-16.491243"
         y="119.70084" /><path
         style="fill:#ffffff;fill-opacity:1;stroke:none;stroke-width:0.564999"
         d="m -11.800459,128.27724 2.1243201,-0.14954 c 0,0 1.76378,3.09677 4.57506,1.214 1.19496,-0.80029 -0.48013,-2.82728 -2.69133,-2.89543 -1.68071,-0.0518 -3.8870501,-1.74195 -3.7538901,-3.43218 0.16357,-2.07617 1.05548,-3.48074 3.9675001,-3.55977 0.85819,-0.0233 3.09863,0.21513 3.8999999,1.07277 1.10202,1.17941 1.23443,2.26129 1.23443,2.26129 l -2.3117099,0.23221 c 0,0 -0.33565,-1.79205 -2.81163,-1.56628 -1.97781,0.18034 -1.66597,2.19814 -1.06066,2.35765 3.51717,0.92681 6.0840399,1.38743 6.2910899,4.0589 0.26191,3.37924 -2.1939999,3.9499 -4.1159099,4.07156 -4.1038801,0.25977 -5.5432901,-3.11854 -5.3472701,-3.66518 z"
         id="path13042"
         sodipodi:nodetypes="ccsssssccsssscc" /></g></g></svg>
