<?xml version="1.0" encoding="UTF-8" standalone="no"?>
<!-- Created with Inkscape (http://www.inkscape.org/) -->

<svg
   width="500"
   height="500"
   viewBox="0 0 132.29167 132.29167"
   version="1.1"
   id="svg5"
   xml:space="preserve"
   inkscape:export-filename="nombre.svg"
   inkscape:export-xdpi="96"
   inkscape:export-ydpi="96"
   xmlns:inkscape="http://www.inkscape.org/namespaces/inkscape"
   xmlns:sodipodi="http://sodipodi.sourceforge.net/DTD/sodipodi-0.dtd"
   xmlns:xlink="http://www.w3.org/1999/xlink"
   xmlns="http://www.w3.org/2000/svg"
   xmlns:svg="http://www.w3.org/2000/svg"><sodipodi:namedview
     id="namedview7"
     pagecolor="#030b18"
     bordercolor="#030b18"
     borderopacity="0"
     inkscape:showpageshadow="2"
     inkscape:pageopacity="0"
     inkscape:pagecheckerboard="0"
     inkscape:deskcolor="#d1d1d1"
     inkscape:document-units="mm"
     showgrid="false" /><defs
     id="defs2"><linearGradient
       inkscape:collect="always"
       id="linearGradient3270"><stop
         style="stop-color:#45aede;stop-opacity:1;"
         offset="0.07161803"
         id="stop3266" /><stop
         style="stop-color:#1074bf;stop-opacity:1;"
         offset="0.51127326"
         id="stop11180" /><stop
         style="stop-color:#0960ad;stop-opacity:1;"
         offset="0.69893897"
         id="stop10277" /><stop
         style="stop-color:#0960ad;stop-opacity:1;"
         offset="0.93103451"
         id="stop11176" /></linearGradient><linearGradient
       inkscape:collect="always"
       xlink:href="#linearGradient3270"
       id="linearGradient3272"
       x1="9.9268579"
       y1="56.500076"
       x2="42.761448"
       y2="56.500076"
       gradientUnits="userSpaceOnUse"
       gradientTransform="matrix(3.1990299,0,0,3.2451964,-18.893197,-117.23733)" /></defs><g
     inkscape:label="Capa 1"
     inkscape:groupmode="layer"
     id="layer1"><path
       id="path3088"
       style="fill:url(#linearGradient3272);fill-opacity:1;stroke:none;stroke-width:1.82044"
       d="m 72.522091,9.6950455 c -0.124123,-0.0023 -0.247605,-0.0013 -0.371951,0.0017 -3.593887,0.08692 -7.996744,2.7871075 -9.783306,5.9516805 -16.978691,30.074623 -29.334336,64.741403 -48.528068,104.213894 -0.667574,1.37291 2.328605,2.31402 3.83199,2.44675 3.360037,0.29661 9.365064,-3.8873 9.365064,-3.8873 0,0 17.146801,-19.194382 27.526533,-26.196438 0.348886,-0.235353 28.338415,-18.241522 37.959497,-13.43614 3.170271,1.583436 7.272163,14.147188 7.272163,14.147188 0,0 2.546587,6.697988 1.309297,9.65282 -1.07711,2.57236 -4.060719,4.58396 -6.810957,4.74927 -11.450767,0.68824 -35.046652,0.14422 -35.046652,0.14422 l -8.798037,14.97059 c 0,0 30.935836,0.41044 45.689602,-0.57689 6.523994,-0.43659 13.684514,-3.83661 17.310084,-9.35599 3.899,-5.93564 4.59188,-14.677722 1.98707,-21.302958 C 105.35592,65.583049 93.058359,37.044525 81.806156,15.792621 79.980213,12.343986 76.366589,9.7652955 72.522091,9.6950455 Z M 71.690567,30.726326 86.438255,63.39767 c 0,0 -10.715215,1.418591 -15.972661,3.196365 -6.481522,2.191684 -19.244276,8.712027 -19.244276,8.712027 z" /></g></svg>
